<?xml version="1.0" standalone="no"?>
<svg viewBox="0 0 200 200" xmlns="http://www.w3.org/2000/svg">
  <path fill="#8A3FFC" d="M39.1,-62.8C50.1,-53.8,58,-42,65.7,-28.9C73.5,-15.8,81.1,-1.5,80.6,12.6C80.2,26.8,71.8,40.8,61,52.3C50.2,63.8,37.1,72.6,22.5,77.3C7.9,81.9,-8.2,82.2,-21.9,77.1C-35.5,71.9,-46.8,61.1,-55.8,49.2C-64.8,37.3,-71.5,24.3,-75.7,9.5C-79.9,-5.2,-81.8,-21.7,-75.5,-34.1C-69.2,-46.4,-54.8,-54.7,-40.9,-62.3C-27,-69.9,-13.5,-76.9,0.3,-77.4C14.1,-77.8,28.1,-71.8,39.1,-62.8Z" transform="translate(100 100)" />
</svg>
