<?xml version="1.0" standalone="no"?>
<svg viewBox="0 0 200 200" xmlns="http://www.w3.org/2000/svg">
  <path fill="#8A3FFC" d="M31.1,-49.8C44.7,-45.9,63.3,-46.6,73.5,-39C83.7,-31.5,85.5,-15.8,79.6,-3.4C73.7,9,60.1,17.9,51.6,28.4C43.1,38.9,39.8,51,32,62.9C24.3,74.8,12.1,86.5,-1.1,88.5C-14.4,90.5,-28.8,82.7,-40.2,72.9C-51.6,63.1,-60,51.3,-67.1,38.8C-74.1,26.3,-79.9,13.2,-78,1.1C-76.1,-10.9,-66.5,-21.9,-58.7,-33.1C-50.9,-44.3,-44.9,-55.8,-35.4,-62.1C-25.9,-68.4,-13,-69.4,-2.1,-65.7C8.7,-62,17.4,-53.6,31.1,-49.8Z" transform="translate(100 100)" />
</svg>
