<?xml version="1.0" standalone="no"?>
<svg viewBox="0 0 200 200" xmlns="http://www.w3.org/2000/svg">
  <path fill="#8A3FFC" d="M36.2,-50.1C49.7,-47.7,65.4,-42.4,69.9,-32.1C74.5,-21.7,67.8,-6.5,60.7,5.3C53.7,17,46.1,25.2,38.4,32.3C30.7,39.4,22.9,45.5,13.8,49.3C4.6,53,-5.9,54.5,-16.7,53.1C-27.6,51.7,-38.8,47.5,-48.5,40C-58.3,32.5,-66.6,21.6,-71.7,8.3C-76.8,-5.1,-78.6,-20.9,-75.1,-36.7C-71.6,-52.4,-62.7,-68.1,-49.3,-70.5C-35.9,-72.9,-17.9,-62,-3.3,-56.9C11.4,-51.8,22.7,-52.4,36.2,-50.1Z" transform="translate(100 100)" />
</svg>
