<?xml version="1.0" standalone="no"?>
<svg viewBox="0 0 200 200" xmlns="http://www.w3.org/2000/svg">
  <path fill="#8A3FFC" d="M45,-65.3C56.7,-62.4,63.7,-47.3,71.7,-32.1C79.6,-16.8,88.6,-1.4,86.1,12C83.6,25.4,69.6,36.8,56.9,46.5C44.2,56.2,32.7,64.1,19.3,70C5.9,76,-9.4,79.9,-19,73.2C-28.6,66.5,-32.7,49.1,-39.9,36.8C-47.1,24.4,-57.4,17.1,-66,5.1C-74.5,-6.9,-81.2,-23.5,-74.9,-32.8C-68.5,-42.2,-49.1,-44.1,-34.4,-45.8C-19.8,-47.4,-9.9,-48.7,3.4,-53.9C16.6,-59.1,33.2,-68.3,45,-65.3Z" transform="translate(100 100)" />
</svg>
