<?xml version="1.0" standalone="no"?>
<svg viewBox="0 0 200 200" xmlns="http://www.w3.org/2000/svg">
  <path fill="#8A3FFC" d="M45.7,-77.1C60.1,-70.8,73.3,-60.3,79.9,-46.8C86.5,-33.3,86.6,-16.6,84,-1.5C81.4,13.7,76.2,27.3,68.1,38.3C60,49.3,49.1,57.6,37.2,66.4C25.4,75.1,12.7,84.3,-0.5,85.1C-13.7,86,-27.3,78.5,-38.5,69.3C-49.6,60.2,-58.2,49.4,-65.7,37.6C-73.3,25.7,-79.7,12.9,-81.3,-0.9C-83,-14.8,-79.8,-29.5,-73.4,-43.3C-67,-57,-57.3,-69.8,-44.5,-77C-31.8,-84.3,-15.9,-86.1,-0.1,-85.9C15.6,-85.7,31.3,-83.4,45.7,-77.1Z" transform="translate(100 100)" />
</svg>
